<svg width="49" height="42" viewBox="0 0 49 42" fill="none" xmlns="http://www.w3.org/2000/svg">
<path fill-rule="evenodd" clip-rule="evenodd" d="M47.9642 27.0951C48.3394 27.0951 48.6436 26.7909 48.6436 26.4157L48.6436 8.89402C48.6436 8.51884 48.3394 8.2147 47.9642 8.2147L40.9882 8.21485L30.7684 8.21644C30.3932 8.21644 30.0891 8.52059 30.0891 8.89576L30.0891 16.1251C30.0891 16.5003 30.3932 16.8044 30.7684 16.8044L40.3236 16.8037L40.3232 26.4157C40.3232 26.7909 40.6273 27.0951 41.0025 27.0951L47.9642 27.0951ZM37.827 37.6419C37.827 38.0171 37.5229 38.3212 37.1477 38.3212H30.186C29.8108 38.3212 29.5066 38.0171 29.5066 37.6419L29.507 28.0299L19.9519 28.0306C19.5767 28.0306 19.2725 27.7264 19.2725 27.3512L19.2725 20.1219C19.2725 19.7467 19.5767 19.4426 19.9519 19.4426L30.1717 19.441L30.1788 19.4409L37.1477 19.4409C37.5229 19.4409 37.827 19.745 37.827 20.1202L37.827 37.6419ZM34.4155 5.98925C34.4158 6.17684 34.264 6.32918 34.0765 6.32952L28.1359 6.32952C27.7607 6.32952 27.4565 6.63366 27.4565 7.00884V8.67346C27.4565 8.73177 27.4415 8.78908 27.4129 8.8399C27.3209 9.00337 27.1138 9.06131 26.9512 8.96771C24.8825 7.79938 22.6756 7.21412 20.3303 7.21195C12.6642 7.20483 7.07146 13.7085 7.07146 20.7329C7.07146 27.7573 12.2758 34.2602 20.3303 34.2538C21.7611 34.2527 22.4662 34.104 23.1092 33.9343L23.3829 33.8607C23.5655 33.8112 23.7507 33.7615 23.954 33.7145C24.7227 33.537 25.3699 33.3225 25.8955 33.0711C25.9631 33.0386 26.037 33.0216 26.112 33.0212C26.3934 33.0197 26.6227 33.2466 26.6242 33.528V40.1423C26.6229 40.354 26.4908 40.5429 26.2925 40.617C25.9161 40.7565 25.4715 40.8825 24.959 40.9952C24.766 41.0376 24.6176 41.0706 24.498 41.0972L24.4977 41.0973C24.0059 41.2068 24.0046 41.2071 23.4106 41.3008C22.7479 41.4054 22.0225 41.4809 20.3303 41.465C7.66031 41.3457 -0.00977325 31.1074 6.86646e-05 20.7329C0.00993347 10.3583 8.48899 -0.104365 20.3303 0.000786012C24.3814 0.0367597 27.1846 1.11012 29.4757 2.24767C30.8443 2.92717 32.4524 4.09015 34.3001 5.73663C34.3737 5.79987 34.4153 5.89221 34.4155 5.98925Z" fill="url(#paint0_linear_0_3044)"/>
<defs>
<linearGradient id="paint0_linear_0_3044" x1="9.21718" y1="-11.2465" x2="-3.78517" y2="33.9139" gradientUnits="userSpaceOnUse">
<stop stop-color="#43FD8A"/>
<stop offset="1" stop-color="#01A4DE"/>
</linearGradient>
</defs>
</svg>
